<svg width="50" height="25" viewBox="0 0 50 25" fill="none" xmlns="http://www.w3.org/2000/svg">
<path d="M5.79569 12.2422C5.79569 8.28833 9.00051 5.07123 12.9543 5.07123C13.5069 5.07123 14.0349 5.13262 14.5506 5.25541V5.19402V5.85508e-09H12.1317C5.42732 0.049116 0 5.51327 0 12.2422C0 18.9956 5.46416 24.472 12.2176 24.472C12.2299 24.472 12.2299 24.472 12.2422 24.472H14.5506V19.2289C14.0349 19.3517 13.5069 19.4131 12.9543 19.4131C9.00051 19.4008 5.79569 16.196 5.79569 12.2422Z" fill="white"/>
<path d="M15.4716 5.85508e-09V5.56239C18.1361 6.6061 20.0271 9.19697 20.0271 12.2422C20.0271 15.2751 18.1361 17.8659 15.4716 18.9219V24.472H21.2181V10.7687L29.9362 22.9495V12.2422L21.2427 5.85508e-09H15.4716Z" fill="white"/>
<path d="M30.8569 5.85508e-09V24.472H36.6035V10.7687L42.3624 18.9097H37.5244V24.472H49.9999V19.0324L36.6281 5.85508e-09H30.8569Z" fill="white"/>
<path d="M6.80249 12.2667C6.80249 15.6802 9.57754 18.4676 12.9911 18.4676C16.4047 18.4676 19.1797 15.6925 19.1797 12.2667C19.1797 8.85312 16.4047 6.07806 12.9911 6.07806C9.58982 6.07806 6.80249 8.85312 6.80249 12.2667ZM15.803 16.0118C15.7662 16.2328 15.6311 16.4415 15.5083 16.6012C15.2996 16.859 14.9557 17.2274 14.6119 17.0064C14.4523 16.9204 14.3295 16.7854 14.1822 16.6994C14.0103 16.5766 13.8015 16.5152 13.5928 16.4907C13.1262 16.4538 12.6227 16.5766 12.193 16.3679C11.8492 16.2205 11.5545 15.8399 11.6036 15.4469C11.6527 15.1031 12.0333 14.9189 12.3158 14.7839C12.6841 14.5997 13.0648 14.3909 13.4577 14.3296C13.4577 14.3296 13.8998 14.219 14.0103 14.2682C14.1576 14.3173 14.3418 14.305 14.4769 14.3909C14.5997 14.4646 14.6733 14.5751 14.7593 14.6734C14.8575 14.8207 14.9803 14.9681 15.1277 15.0786C15.2996 15.2136 15.496 15.3364 15.6434 15.4961C15.7416 15.6557 15.8153 15.8276 15.803 16.0118ZM14.3664 8.48475C14.1822 8.65665 13.8998 9.25833 13.691 9.38112C13.4945 9.52846 13.2735 9.66353 13.0157 9.70037C12.8315 9.71265 12.6841 9.65125 12.5613 9.51618C12.4754 9.40567 12.4017 9.24605 12.2666 9.16009C12.1561 9.08642 12.107 9.20921 12.0702 9.30744C11.9597 9.65125 12.0088 10.0565 11.7755 10.3757C11.665 10.5231 11.4808 10.6459 11.3334 10.7564C11.2229 10.8423 11.1001 10.9037 11.0019 10.9897C10.9037 11.0756 10.8423 11.1739 10.8668 11.3089C10.8914 11.444 10.9037 11.5791 10.9528 11.7141C11.0019 11.8124 11.051 11.9106 11.0265 12.0088C11.0019 12.193 10.83 12.3158 10.8791 12.5123C11.0019 13.0771 11.5053 13.4455 12.0333 13.6051C12.2053 13.6542 12.3158 13.7156 12.3526 13.9489C12.3772 14.1576 12.0088 14.2313 11.8614 14.2313C11.1984 14.2559 10.6458 13.9489 10.1915 13.4946C9.98275 13.2858 9.76173 13.1017 9.55299 12.8929C9.46703 12.807 9.38108 12.6964 9.34424 12.5737C9.31969 12.4386 9.38108 12.3035 9.41792 12.1807C9.46703 12.0211 9.49159 11.8492 9.45475 11.6773C9.44248 11.6036 9.41792 11.5299 9.39336 11.4685C9.3688 11.4072 9.34424 11.3335 9.30741 11.2844C9.25829 11.2352 9.20917 11.2107 9.1355 11.223C9.12322 11.223 9.12322 11.223 9.11094 11.223C9.03727 11.2352 8.97587 11.2966 8.9022 11.3212C8.85308 11.3458 8.79169 11.3703 8.73029 11.3826C8.58295 11.4194 8.4356 11.4194 8.28825 11.4194C8.1409 11.4194 7.99355 11.3826 7.84621 11.3703C7.83393 11.3703 7.82165 11.3703 7.80937 11.358C8.23913 8.91451 10.3757 7.06038 12.942 7.06038C14.0103 7.06038 15.0171 7.39192 15.8398 7.94447C15.5206 7.99359 14.8207 8.06726 14.3664 8.48475Z" fill="white"/>
</svg>
